<svg width="52" height="52" viewBox="0 0 52 52" fill="none" xmlns="http://www.w3.org/2000/svg">
<path d="M45.5711 39.4553H31.9549C31.9549 39.4553 28.8603 40.6931 26.3847 40.6931C24.2185 40.6931 21.7428 39.4553 21.7428 39.4553H7.19824V17.1743H8.43608C8.43608 14.6987 8.43608 13.1514 8.43608 13.1514C8.43608 13.1514 14.3158 13.4608 18.9577 13.4608C22.9806 13.4608 26.3847 16.8649 26.3847 16.8649C26.3847 16.8649 29.7887 13.4608 33.8117 13.4608H44.3332C44.3332 13.4608 44.3332 15.0081 44.3332 17.4838H45.8805V39.4553H45.5711ZM25.7657 18.7216C24.5279 17.4838 22.0523 15.3176 18.9577 15.3176C15.8631 15.3176 11.2212 15.3176 11.2212 15.3176C11.2212 15.3176 11.2212 32.9567 11.2212 33.8851C11.2212 34.8134 12.1496 34.8134 12.1496 34.8134C12.1496 34.8134 15.5536 34.8134 18.6482 34.8134C21.1239 34.8134 24.2185 36.9797 25.4563 37.908V18.7216H25.7657ZM33.8117 15.627C30.7171 15.627 28.2414 17.7932 27.313 19.0311V37.908C28.5509 36.9797 31.336 35.1229 33.8117 35.1229C35.9779 35.1229 40.6198 35.1229 40.6198 35.1229C40.6198 35.1229 41.5481 35.1229 41.5481 34.1945C41.5481 32.9567 41.5481 15.627 41.5481 15.627C41.5481 15.627 35.3589 15.627 33.8117 15.627Z" fill="#2E4083"/>
<rect x="0.5" y="0.5" width="51" height="51" stroke="#262626"/>
</svg>
