<svg width="52" height="52" viewBox="0 0 52 52" fill="none" xmlns="http://www.w3.org/2000/svg">
<path d="M22.9807 18.6372H20.8145C20.8145 17.0899 21.7428 16.471 22.3617 15.8521C22.9807 15.2332 23.2901 15.2332 23.2901 14.6143C23.2901 13.9954 22.9807 13.6859 22.3617 13.3764C21.7428 12.7575 20.8145 12.1386 20.8145 10.5913C20.8145 9.04404 21.7428 8.42509 22.3617 7.80617C22.9807 7.18726 23.2901 7.18728 23.2901 6.56836H25.4563C25.4563 8.11565 24.528 8.73455 23.909 9.35347C23.2901 9.97238 22.9807 9.97241 22.9807 10.5913C22.9807 11.2102 23.2901 11.5197 23.909 11.8291C24.528 12.4481 25.4563 13.067 25.4563 14.6143C25.4563 16.1616 24.528 16.7805 23.909 17.3994C22.9807 17.7089 22.9807 18.0183 22.9807 18.6372ZM28.8604 18.6372H26.6942C26.6942 17.0899 27.6225 16.471 28.2415 15.8521C28.8604 15.2332 29.1698 15.2332 29.1698 14.6143C29.1698 13.9954 28.8604 13.6859 28.2415 13.3764C27.6225 12.7575 26.6942 12.1386 26.6942 10.5913C26.6942 9.04404 27.6225 8.42509 28.2415 7.80617C28.8604 7.18726 29.1698 7.18728 29.1698 6.56836H31.336C31.336 8.11565 30.4077 8.73455 29.7887 9.35347C29.1698 9.97238 28.8604 9.97241 28.8604 10.5913C28.8604 11.2102 29.1698 11.5197 29.7887 11.8291C30.4077 12.4481 31.336 13.067 31.336 14.6143C31.336 16.1616 30.4077 16.7805 29.7887 17.3994C28.8604 17.7089 28.8604 18.0183 28.8604 18.6372Z" fill="#2E4083"/>
<path d="M43.0946 23.2788C42.7852 22.6599 42.1663 22.041 41.5473 22.041H9.67315C9.05423 22.041 8.43532 22.3505 8.12586 23.2788C8.12586 23.5883 7.81641 23.8978 7.81641 24.2072V26.064C7.81641 26.3734 7.81641 26.9923 7.81641 27.3018C9.3637 42.4653 21.742 43.3936 25.4555 43.3936C29.169 43.3936 41.5473 42.1558 43.0946 27.3018C43.0946 26.9923 43.0946 26.3734 43.0946 26.064V24.2072C43.4041 23.5883 43.4041 23.5883 43.0946 23.2788ZM26.0744 39.6801H25.4555C18.0285 39.6801 11.8394 33.491 11.5299 26.064V25.4451H25.765H40.0001V26.064C39.6906 33.491 33.5014 39.6801 26.0744 39.6801Z" fill="#2E4083"/>
<path d="M40.3105 25.4453V35.6574C40.3105 35.3479 40.62 35.348 40.62 35.0385H40.9295H43.4051C45.8808 35.0385 48.047 32.8723 48.047 30.3966C48.047 27.921 45.8808 25.7547 43.4051 25.7547H42.7862V25.4453H40.3105ZM43.7146 28.5399C44.9524 28.5399 45.8808 29.4683 45.8808 30.7061C45.8808 31.9439 44.9524 32.8723 43.7146 32.8723H42.1673C42.7862 31.6345 43.0957 30.0872 43.4051 28.5399H43.7146Z" fill="#2E4083"/>
<rect x="0.5" y="0.5" width="51" height="51" stroke="#262626"/>
</svg>
