<svg width="52" height="52" viewBox="0 0 52 52" fill="none" xmlns="http://www.w3.org/2000/svg">
<path d="M26.3853 8.55124C16.7921 8.55124 9.05561 16.2877 9.05561 25.8809C9.05561 35.4741 16.7921 43.2106 26.3853 43.2106C35.9785 43.2106 43.715 35.4741 43.715 25.8809C43.715 16.2877 35.9785 8.55124 26.3853 8.55124ZM26.3853 45.9957C15.2448 45.9957 6.27051 37.0214 6.27051 25.8809C6.27051 14.7404 15.2448 5.76611 26.3853 5.76611C37.5258 5.76611 46.5001 14.7404 46.5001 25.8809C46.8095 37.0214 37.5258 45.9957 26.3853 45.9957Z" fill="#2E4083"/>
<path d="M28.8611 28.3562C27.6232 29.594 25.457 29.594 23.9097 28.3562C22.6719 27.1183 22.6719 24.9521 23.9097 23.4048C25.1476 22.167 27.3138 22.167 28.8611 23.4048C30.0989 24.6427 30.0989 26.8089 28.8611 28.3562ZM35.9786 15.9778L23.6003 21.5481C22.9814 21.8576 22.3624 22.4765 22.053 23.0954L16.4827 35.4737C16.1733 36.0926 16.4827 36.4021 17.1017 36.0926L29.48 30.5224C30.0989 30.2129 30.7178 29.594 31.0273 28.9751L36.5975 16.5968C36.5975 15.9779 36.2881 15.6684 35.9786 15.9778Z" fill="#2E4083"/>
<rect x="0.5" y="0.5" width="51" height="51" stroke="#262626"/>
</svg>
