<svg width="52" height="52" viewBox="0 0 52 52" fill="none" xmlns="http://www.w3.org/2000/svg">
<path d="M26.3853 46.7135C15.2448 46.7135 6.27051 37.7392 6.27051 26.5987C6.27051 15.4582 15.2448 6.48389 26.3853 6.48389C37.5258 6.48389 46.5001 15.4582 46.5001 26.5987C46.5001 37.4297 37.5258 46.7135 26.3853 46.7135ZM26.3853 9.26902C16.7921 9.26902 9.05561 17.0055 9.05561 26.5987C9.05561 36.1919 16.7921 43.9284 26.3853 43.9284C35.9785 43.9284 43.715 36.1919 43.715 26.5987C43.4055 16.696 35.669 9.26902 26.3853 9.26902Z" fill="#2E4083"/>
<path d="M20.5068 16.0771H34.7419V19.7906H24.5298V24.4325H31.6473V28.146H24.5298V36.5014H20.5068V16.0771Z" fill="#2E4083"/>
<rect x="0.5" y="0.5" width="51" height="51" stroke="#262626"/>
</svg>
