<svg width="52" height="52" viewBox="0 0 52 52" fill="none" xmlns="http://www.w3.org/2000/svg">
<path d="M26.3045 8.38365C24.4478 8.38365 22.9005 9.93091 22.9005 11.7877C22.9005 13.6444 24.4478 15.1917 26.3045 15.1917C28.1613 15.1917 29.7086 13.6444 29.7086 11.7877C29.7086 9.93091 28.1613 8.38365 26.3045 8.38365ZM26.3045 18.2863C22.591 18.2863 19.8059 15.1917 19.8059 11.7877C19.8059 8.38362 22.9005 5.28906 26.3045 5.28906C30.018 5.28906 32.8032 8.38362 32.8032 11.7877C32.8032 15.1917 29.7086 18.2863 26.3045 18.2863ZM17.0208 43.3524H35.5883L26.3045 25.7133L17.0208 43.3524ZM38.064 46.1376H14.5451C13.9262 46.1376 13.6167 45.8281 13.3073 45.5186C12.9978 45.2092 12.9978 44.5903 13.3073 43.9714L25.0667 21.6903C25.6856 20.7619 27.2329 20.7619 27.8518 21.6903L39.6112 43.9714C39.9207 44.5903 39.9207 44.8997 39.6112 45.5186C38.9923 46.1376 38.3734 46.1376 38.064 46.1376Z" fill="#2E4083"/>
<rect x="0.5" y="0.5" width="51" height="51" stroke="#262626"/>
</svg>
