<svg width="52" height="52" viewBox="0 0 52 52" fill="none" xmlns="http://www.w3.org/2000/svg">
<path d="M6.58203 43.1967C8.12932 41.6494 9.67661 40.1021 11.2239 38.5548C10.2955 38.5548 9.36715 38.2453 8.74823 38.2453C8.74823 37.0075 9.05768 36.0791 9.05768 34.8413C11.5334 35.1508 14.009 35.1508 16.1752 35.4602L16.4847 35.7697C16.7941 38.2453 16.7942 40.721 17.1036 42.8872C15.8658 42.8872 14.9374 43.1967 13.6996 43.1967C13.6996 42.2683 13.6996 41.6494 13.3901 40.721C11.8428 42.2683 10.2955 43.8156 8.74823 45.3629L6.58203 43.1967Z" fill="#2E4083"/>
<path d="M9.05561 5.75244C10.6029 7.29973 12.1502 8.84702 13.6975 10.3943C13.6975 9.46594 14.007 8.53756 14.007 7.91864C15.2448 7.91864 16.1732 8.22809 17.411 8.22809C17.1015 10.0848 17.1015 11.9416 16.7921 13.7984C16.7921 14.4173 16.7921 15.0362 16.4826 15.6551L16.1732 15.9646C13.6975 16.274 11.2218 16.274 8.74616 16.5835C8.74616 15.3456 8.43671 14.4173 8.43671 13.1794C9.36508 13.1794 9.98401 12.87 10.9124 12.87C9.36509 11.3227 7.8178 9.77539 6.27051 8.22809L9.05561 5.75244Z" fill="#2E4083"/>
<path d="M35.6689 8.22809C36.9068 8.22809 37.8351 7.91864 39.073 7.91864C39.073 8.84702 39.073 9.46594 39.3824 10.3943L44.0243 5.75244C44.9527 6.68082 45.5716 7.29972 46.5 8.22809C44.9527 9.77539 43.7149 11.0132 41.8581 12.87C42.7865 12.87 43.7148 13.1794 44.3338 13.1794C44.3338 14.4173 44.0243 15.3456 44.0243 16.5835C42.1676 16.274 40.3108 16.274 38.4541 15.9646C37.8351 15.9646 37.5257 15.9646 36.9068 15.9646C36.5973 15.9646 36.5973 15.9646 36.5973 15.6551C36.2878 12.87 35.9784 10.7038 35.6689 8.22809Z" fill="#2E4083"/>
<path d="M44.0262 35.1509C44.0262 36.3887 44.3356 37.3171 44.3356 38.5549C43.4072 38.5549 42.7883 38.8644 41.86 38.8644L46.1924 43.1968C45.264 44.1252 44.6451 44.7441 43.7167 45.6725C42.1694 44.1252 40.9316 42.8873 39.0748 41.0306C39.0748 41.959 38.7654 42.8873 38.7654 43.5062C37.5276 43.5062 36.5992 43.1968 35.3613 43.1968C35.3613 42.8873 35.3613 42.5779 35.3613 42.2684C35.6708 40.1022 35.6708 38.2454 35.9803 36.0792C35.9803 35.7698 35.9803 35.4603 36.2897 35.4603C39.0748 35.4603 41.5505 35.1509 44.0262 35.1509Z" fill="#2E4083"/>
<path d="M26.3864 19.9866C23.2918 19.9866 20.5067 22.4622 20.5067 25.8663C20.5067 28.9609 22.9824 31.746 26.3864 31.746C29.481 31.746 32.2661 29.2703 32.2661 25.8663C32.2661 22.4622 29.481 19.9866 26.3864 19.9866ZM26.3864 34.5311C21.4351 34.5311 17.4121 30.5082 17.4121 25.5568C17.4121 20.6055 21.4351 16.5825 26.3864 16.5825C31.3377 16.5825 35.3607 20.6055 35.3607 25.5568C35.3607 30.5082 31.3377 34.5311 26.3864 34.5311Z" fill="#2E4083"/>
<rect x="0.5" y="0.5" width="51" height="51" stroke="#262626"/>
</svg>
