<svg width="52" height="52" viewBox="0 0 52 52" fill="none" xmlns="http://www.w3.org/2000/svg">
<path d="M43.4041 36.3755C42.4757 36.3755 41.8568 35.7565 41.8568 34.8282V26.4728C41.8568 17.808 34.7393 10.9999 26.3839 10.9999C17.7191 10.9999 10.911 18.1174 10.911 26.4728V34.8282C10.911 35.7565 10.2921 36.3755 9.3637 36.3755C8.43532 36.3755 7.81641 35.7565 7.81641 34.8282V26.4728C7.81641 16.2607 16.1718 7.90527 26.0744 7.90527C36.2866 7.90527 44.3325 16.2607 44.3325 26.4728V34.8282C44.9514 35.4471 44.3325 36.3755 43.4041 36.3755Z" fill="#2E4083"/>
<path d="M15.5554 44.1121H13.3892C12.4608 44.1121 12.1514 43.8026 12.1514 42.8743V32.6622C12.1514 31.7338 12.4608 31.4243 13.3892 31.4243H15.5554C18.0311 31.4243 18.0311 36.0662 18.0311 37.923C18.0311 39.7797 18.0311 44.1121 15.5554 44.1121Z" fill="#2E4083"/>
<path d="M34.7402 37.6129C34.7402 35.7561 34.7402 31.1143 37.2159 31.1143H39.3821C40.3105 31.1143 40.6199 31.4237 40.6199 32.3521V42.5642C40.6199 43.4926 40.3105 43.802 39.3821 43.802H37.2159C34.7402 44.1115 34.7402 39.4696 34.7402 37.6129Z" fill="#2E4083"/>
<rect x="0.5" y="0.5" width="51" height="51" stroke="#262626"/>
</svg>
