<svg width="52" height="52" viewBox="0 0 52 52" fill="none" xmlns="http://www.w3.org/2000/svg">
<path d="M40.9304 31.7752C40.3115 31.7752 39.6926 31.1563 39.6926 30.5374V23.4198C39.6926 15.9928 33.8129 10.1131 26.3859 10.1131C18.9589 10.1131 13.0792 15.9928 13.0792 23.4198V30.8468C13.0792 31.4657 12.4603 32.0847 11.8414 32.0847C11.2224 32.0847 10.6035 31.4657 10.6035 30.8468V23.7293C10.6035 15.0644 17.7211 8.25635 26.0764 8.25635C34.7413 8.25635 41.5494 15.3739 41.5494 23.7293V30.8468C42.1683 31.4657 41.5494 31.7752 40.9304 31.7752Z" fill="#2E4083"/>
<path d="M17.1025 37.0357H15.2457C14.6268 37.0357 14.3174 36.7263 14.3174 36.1074V27.4425C14.3174 26.8236 14.6268 26.5142 15.2457 26.5142H17.1025C19.2687 26.5142 19.2687 30.2277 19.2687 31.775C19.2687 33.0128 19.2687 37.0357 17.1025 37.0357Z" fill="#2E4083"/>
<path d="M33.502 31.4649C33.502 29.9176 33.502 26.2041 35.6682 26.2041H37.5249C38.1438 26.2041 38.4533 26.5136 38.4533 27.1325V35.7973C38.4533 36.4162 38.1438 36.7257 37.5249 36.7257H35.6682C33.502 37.0351 33.502 33.0122 33.502 31.4649Z" fill="#2E4083"/>
<path d="M12.1514 34.8682C12.1514 34.8682 12.4608 44.1519 22.3635 42.9141" stroke="#2E4083" stroke-width="0.34" stroke-linecap="round" stroke-linejoin="round"/>
<path d="M25.4571 44.4621H21.7436C20.8152 44.4621 20.1963 43.8432 20.1963 42.9149V42.6054C20.1963 41.677 20.8152 41.0581 21.7436 41.0581H25.4571C26.3854 41.0581 27.0044 41.677 27.0044 42.6054V43.2243C27.0044 43.8432 26.3854 44.4621 25.4571 44.4621Z" fill="#2E4083"/>
<rect x="0.5" y="0.5" width="51" height="51" stroke="#262626"/>
</svg>
