<svg width="52" height="52" viewBox="0 0 52 52" fill="none" xmlns="http://www.w3.org/2000/svg">
<path d="M26.6942 8.07408C24.8375 8.07408 23.2902 9.62139 23.2902 11.4781C23.2902 13.3349 24.8375 14.8821 26.6942 14.8821C28.551 14.8821 30.0982 13.3349 30.0982 11.4781C30.0982 9.62139 28.551 8.07408 26.6942 8.07408ZM26.6942 17.9767C22.9807 17.9767 20.1956 14.8822 20.1956 11.4781C20.1956 8.07409 23.2902 4.97949 26.6942 4.97949C30.0982 4.97949 33.1928 8.07409 33.1928 11.4781C33.1928 14.8822 30.4077 17.9767 26.6942 17.9767ZM17.4105 23.547L26.6942 41.1861L35.978 23.547H17.4105ZM26.6942 45.828C26.0753 45.828 25.4564 45.5185 25.4564 44.8996L13.6969 22.6186C13.3875 21.9997 13.3875 21.6902 13.6969 21.0713C14.0064 20.7619 14.6253 20.4524 14.9348 20.4524H38.4536C39.0725 20.4524 39.382 20.7619 39.6914 21.0713C40.0009 21.3808 40.0009 21.9997 39.6914 22.6186L27.932 44.8996C27.6226 45.5185 27.3131 45.828 26.6942 45.828Z" fill="#2E4083"/>
<rect x="0.5" y="0.5" width="51" height="51" stroke="#262626"/>
</svg>
