<svg width="52" height="52" viewBox="0 0 52 52" fill="none" xmlns="http://www.w3.org/2000/svg">
<path d="M10.9128 36.8673H42.4776V18.6092H10.9128V36.8673ZM43.0965 40.5808H10.2939C8.74663 40.5808 7.50879 39.343 7.50879 37.7957V18.2998C7.50879 16.7525 8.74663 15.5146 10.2939 15.5146H43.0965C44.6438 15.5146 45.8816 16.7525 45.8816 18.2998V37.7957C45.8816 39.0335 44.6438 40.5808 43.0965 40.5808Z" fill="#2E4083"/>
<path d="M31.9572 12.1104H21.4356V15.8239H31.6477V12.1104H31.9572ZM31.9572 18.2996H21.4356C20.1978 18.2996 18.96 17.3712 18.96 15.8239V12.1104C18.96 10.8726 19.8883 9.63477 21.4356 9.63477H31.9572C33.195 9.63477 34.4329 10.5632 34.4329 12.1104V15.8239C34.4329 17.0618 33.195 18.2996 31.9572 18.2996Z" fill="#2E4083"/>
<rect x="0.5" y="0.5" width="51" height="51" stroke="#262626"/>
</svg>
