<svg width="52" height="52" viewBox="0 0 52 52" fill="none" xmlns="http://www.w3.org/2000/svg">
<path d="M44.9539 28.2158L29.4809 20.1698C30.7188 19.2415 31.6471 17.6942 31.6471 15.8374C31.6471 13.0523 29.4809 10.5767 26.3864 10.5767C24.2202 10.5767 22.0539 12.1239 21.435 13.9807C21.1256 14.5996 21.435 15.528 22.3634 15.8374C22.9823 16.1469 23.9107 15.528 24.2201 14.9091C24.5296 13.9807 25.458 13.3618 26.3864 13.3618C27.6242 13.3618 28.862 14.2902 28.862 15.8374C28.862 17.0753 26.0769 18.932 25.1485 19.5509C23.9107 20.1698 7.81887 28.2158 7.81887 28.2158C7.19995 28.5252 3.7959 30.0725 3.7959 34.4049C3.7959 35.3333 4.41482 35.9522 5.34319 35.9522H26.6958C29.7904 35.9522 48.0485 35.9522 48.0485 35.9522C48.9768 35.9522 49.5957 35.3333 49.5957 34.4049C49.2863 30.382 45.5728 28.5252 44.9539 28.2158ZM26.6958 32.8577H6.89048C7.5094 31.6198 8.43777 31.3103 8.74723 31.0009L26.3864 22.3361L43.4066 31.0009C43.4066 31.0009 44.6444 31.6198 45.5728 32.8577C40.9309 32.8577 29.1715 32.8577 26.6958 32.8577Z" fill="#2E4083"/>
<rect x="0.5" y="0.5" width="51" height="51" stroke="#262626"/>
</svg>
