<svg width="72" height="72" viewBox="0 0 72 72" fill="none" xmlns="http://www.w3.org/2000/svg">
<path d="M35.8371 15C30.4977 15 26.1692 20.1102 26.1692 26.414C26.1692 30.7859 28.2512 34.5828 31.3084 36.5L27.7632 38.1615L18.3289 42.5861C17.4175 43.047 16.9626 43.8284 16.9626 44.9344V55.4413C17.0376 56.7549 17.8171 57.9793 19.0808 58H52.6445C54.0872 57.8731 54.8171 56.698 54.8313 55.4413V44.9344C54.8313 43.8284 54.3764 43.047 53.465 42.5861L44.3723 38.1615L40.5935 36.3511C43.5253 34.3908 45.505 30.6759 45.505 26.4141C45.505 20.1102 41.1765 15 35.8371 15ZM20.2429 19.0138C17.9451 19.102 16.124 20.1074 14.7405 21.7095C13.2101 23.6383 12.4641 25.9284 12.4497 28.2065C12.5436 31.5753 14.0342 34.7644 16.6878 36.4325L6.09342 41.411C5.36425 41.6875 5 42.3326 5 43.3464V51.7789C5.05694 52.8972 5.63116 53.8371 6.70784 53.8532H13.7492V44.9344C13.8657 42.55 14.973 40.6226 16.9626 39.6821L24.0021 36.2956C24.5489 35.973 25.0732 35.5345 25.5744 34.9815C22.672 30.453 22.269 25.0291 24.1395 20.2584C22.9229 19.5055 21.5557 19.0217 20.2429 19.0138ZM51.6865 19.0138C50.1838 19.0456 48.7952 19.6052 47.6544 20.3954C49.474 25.2092 48.9721 30.6365 46.2862 34.8425C46.8787 35.5338 47.4954 36.0639 48.1334 36.4326L54.9 39.6821C56.9613 40.8253 58.0243 42.7697 58.0447 44.9345V53.8533H65.2902C66.4818 53.7493 66.9897 52.7882 67 51.7789V43.3465C67 42.4248 66.6357 41.7798 65.9066 41.411L55.4476 36.3631C58.16 34.3407 59.522 31.3098 59.5484 28.2065C59.4762 25.7503 58.7343 23.4697 57.2575 21.7095C55.7144 20.0167 53.8005 19.0317 51.6865 19.0138Z" fill="#262626"/>
</svg>
