<svg width="76" height="76" viewBox="0 0 76 76" fill="none" xmlns="http://www.w3.org/2000/svg">
<path d="M44.3983 8C42.9127 8 41.4878 8.59017 40.4373 9.64069C39.3868 10.6912 38.7966 12.116 38.7966 13.6017C38.7966 15.0873 39.3868 16.5122 40.4373 17.5627C41.4878 18.6132 42.9127 19.2034 44.3983 19.2034C45.884 19.2034 47.3088 18.6132 48.3593 17.5627C49.4098 16.5122 50 15.0873 50 13.6017C50 12.116 49.4098 10.6912 48.3593 9.64069C47.3088 8.59017 45.884 8 44.3983 8ZM43.0539 25.8134C38.6099 26.1868 26.4729 35.859 26.4729 35.859C25.726 36.4192 25.9501 36.3819 26.5476 37.4275C27.1451 38.4358 27.0704 38.5105 27.78 38.025C28.5269 37.5395 29.7593 36.7553 31.8132 35.4856C39.7302 30.4067 33.0829 42.1329 29.6846 61.8882C28.3402 71.6725 37.1535 66.6309 39.4315 65.1372C41.6722 63.6807 47.6846 59.5355 48.2822 59.1247C49.1037 58.5645 48.5062 58.1164 47.8714 57.1828C47.4232 56.5479 46.9751 56.996 46.9751 56.996C44.5477 58.6019 40.1037 61.9629 39.5062 59.8342C38.7966 57.7056 43.3527 43.1039 45.8548 33.0582C46.2655 30.6681 47.3859 25.4399 43.0539 25.8134Z" fill="#262626"/>
</svg>
